<svg width="175" height="116" fill="none" xmlns="http://www.w3.org/2000/svg"><path d="M3.018 120H114.87c15.825 0 21.324-11.371 12.07-25.188L71.014 10.756C64.442.681 53.445.681 47.008 10.756L-8.92 94.812C-18.307 108.63-12.808 120 3.018 120Z" stroke="#F5F5FB" stroke-width="5" stroke-linecap="round" stroke-linejoin="round"/><path d="M71.821 120h86.996c12.309 0 16.586-8.803 9.388-19.5l-12.15-18.177-31.348-46.899c-5.111-7.8-13.664-7.8-18.671 0l-18.887 28.06L62.538 100.5c-7.302 10.697-3.025 19.5 9.283 19.5Z" fill="#fff"/><path d="m156.055 82.323 12.15 18.177c7.198 10.697 2.921 19.5-9.388 19.5H71.821c-12.308 0-16.585-8.803-9.283-19.5l24.611-37.016m68.906 18.839-31.348-46.899c-5.111-7.8-13.664-7.8-18.671 0l-18.887 28.06m68.906 18.839L124.707 61.6l-21.452 11.303-16.106-9.42m-70.463-7.535 30.198-15.07 18.12 9.419 22.145-14.873" stroke="#F5F5FB" stroke-width="5" stroke-linecap="round" stroke-linejoin="round"/></svg>