<svg width="175" height="116" viewBox="0 0 175 116" fill="none" xmlns="http://www.w3.org/2000/svg">
<path d="M3.01766 120H114.87C130.695 120 136.194 108.629 126.94 94.8121L71.0141 10.7564C64.4424 0.68122 53.445 0.68122 47.0075 10.7564L-8.91859 94.8121C-18.3067 108.629 -12.8079 120 3.01766 120Z" stroke="#F5F5FB" stroke-width="5" stroke-linecap="round" stroke-linejoin="round"></path>
<path d="M71.8213 120H158.817C171.126 120 175.403 111.197 168.205 100.5L156.055 82.3226L124.707 35.4243C119.596 27.6242 111.043 27.6242 106.036 35.4243L87.1494 63.4839L62.5375 100.5C55.2357 111.197 59.5125 120 71.8213 120Z" fill="white"></path>
<path d="M156.055 82.3226L168.205 100.5C175.403 111.197 171.126 120 158.817 120H71.8213C59.5125 120 55.2357 111.197 62.5375 100.5L87.1494 63.4839M156.055 82.3226L124.707 35.4243C119.596 27.6242 111.043 27.6242 106.036 35.4243L87.1494 63.4839M156.055 82.3226L124.707 61.6L103.255 72.9033L87.1494 63.4839M16.6855 55.9484L46.8843 40.8774L65.0036 50.2968L87.1494 35.4243" stroke="#F5F5FB" stroke-width="5" stroke-linecap="round" stroke-linejoin="round"></path>
</svg>
